<svg width="17" height="17" viewBox="0 0 17 17" fill="none" xmlns="http://www.w3.org/2000/svg">
<path d="M12.9583 14.2813L11.4583 7.44792L14.375 4.53125C15.625 3.28125 16.0417 1.61458 15.625 0.78125C14.7917 0.364583 13.125 0.78125 11.875 2.03125L8.95833 4.94792L2.125 3.44792C1.70833 3.36458 1.375 3.53125 1.20833 3.86458L0.958333 4.28125C0.791667 4.69792 0.875 5.11458 1.20833 5.36458L5.625 8.28125L3.95833 10.7812H1.45833L0.625 11.6146L3.125 13.2812L4.79167 15.7812L5.625 14.9479V12.4479L8.125 10.7812L11.0417 15.1979C11.2917 15.5312 11.7083 15.6146 12.125 15.4479L12.5417 15.2812C12.875 15.0312 13.0417 14.6979 12.9583 14.2813Z" stroke="#3B82F6" stroke-width="1.25" stroke-linecap="round" stroke-linejoin="round"/>
</svg>
